<svg width="207" height="59" viewBox="0 0 207 59" fill="none" xmlns="http://www.w3.org/2000/svg">
<path d="M0.53782 11.3501L2.15128 5.94903C2.25293 5.5407 2.8085 4.89365 3.22692 4.86881H10.2186C10.5766 4.84007 10.9362 4.84007 11.2942 4.86881H15.5968C15.9119 4.90067 15.9932 5.12428 16.1346 5.40892L16.6724 6.48914C16.8959 6.82524 17.0766 7.18814 17.2102 7.56936L17.7481 9.72979C17.8083 10.0895 17.9229 10.2699 18.2859 10.2699C18.4188 10.2436 18.5409 10.1782 18.6367 10.0821C18.7324 9.98588 18.7975 9.86325 18.8237 9.72979V7.02925C18.8237 6.03112 18.274 5.17559 17.7481 4.3287C17.251 3.48904 16.5411 2.79674 15.6908 2.32234C14.8405 1.84795 13.8802 1.60841 12.9077 1.62815H11.832C11.5798 1.62815 11.4722 1.26736 11.2942 1.08804C10.3963 0.325766 9.24107 -0.0609458 8.0673 0.00782147H7.52948C5.78555 0.0176086 4.09009 0.585169 2.6891 1.62815C2.29236 1.94771 1.93166 2.30994 1.61346 2.70837V3.24848C0.785755 4.29197 0 5.15507 0 6.48914V11.3501C0 11.4679 0.420575 11.3501 0.53782 11.3501C0.665821 11.3501 0.504475 11.4743 0.53782 11.3501Z" fill="white"/>
<path d="M9.68144 50.2377V38.8954C9.65856 38.6825 9.69709 38.4675 9.79244 38.276C9.88779 38.0845 10.0359 37.9245 10.2193 37.8152C10.7192 37.4608 11.0932 36.9552 11.2867 36.3722C11.4802 35.7892 11.4831 35.1593 11.2949 34.5745C11.1996 34.085 10.9269 33.6483 10.5295 33.349C10.1321 33.0496 9.63831 32.909 9.14362 32.9542C7.98408 32.9445 6.80357 33.4641 6.45452 34.5745C6.26722 35.1594 6.27052 35.7889 6.46397 36.3718C6.65741 36.9546 7.03091 37.4602 7.53016 37.8152C7.71605 37.9218 7.86634 38.0812 7.96206 38.2735C8.05778 38.4657 8.09464 38.6822 8.06798 38.8954C8.04862 42.5444 8.06798 46.0486 8.06798 49.6976V50.2377L2.68978 39.9756C2.08151 38.6945 1.65233 37.4868 1.07632 36.1949C0.951121 35.8458 0.951121 35.4638 1.07632 35.1147C2.98741 32.4181 4.10554 29.2366 4.30324 25.9328C4.26237 26.0144 4.32314 25.8437 4.30324 25.9328H13.4462C13.7436 27.3371 13.6419 28.3703 13.984 29.7136C14.5584 31.6582 15.4686 33.4864 16.6731 35.1147C16.7691 35.2783 16.8198 35.4648 16.8198 35.6548C16.8198 35.8447 16.7691 36.0312 16.6731 36.1949" fill="white"/>
<path d="M14.522 24.3125V25.3927C14.3558 25.8 13.8826 26.5134 13.4464 26.4729H4.84126C4.57312 26.4258 4.32597 26.2968 4.13348 26.1035C3.941 25.9102 3.81254 25.662 3.76562 25.3927V24.3125H14.522Z" fill="white"/>
<path d="M9.14258 26.4747L11.2939 25.3945V27.555L9.14258 26.4747Z" fill="#FFFCF8"/>
<path d="M8.60636 26.4747L6.45508 27.555V25.3945L8.60636 26.4747Z" fill="#FFFCF8"/>
<path d="M8.60563 51.3163C8.23345 51.2374 7.19008 52.4089 7.52999 53.4767C8.02317 55.0695 11.4071 55.5729 12.3704 55.6372C15.7167 55.8635 16.8235 54.4203 19.8998 55.097C21.8812 55.5243 22.4061 56.2351 22.5889 56.7174C22.8041 57.3002 22.3614 58.1924 22.5889 58.3377C22.8164 58.483 23.4946 57.8192 23.6646 57.2575C23.7369 56.964 23.7248 56.6559 23.6296 56.369C23.5344 56.0822 23.36 55.8284 23.1268 55.6372C22.5352 55.0565 21.7688 54.7427 20.4377 54.5569C18.4219 54.262 17.1855 54.5569 15.0595 54.5569C13.9608 54.5662 12.8689 54.3835 11.8325 54.0168C10.0233 53.5534 9.27091 53.1375 9.14345 52.9366C8.65242 52.1378 8.86539 51.3714 8.60563 51.3163Z" fill="white"/>
<path d="M48.538 27H41.938V26.164C42.158 26.0467 42.4147 25.9293 42.708 25.812C43.0014 25.68 43.346 25.5847 43.742 25.526V13.074C43.4487 13.0153 43.1407 12.9347 42.818 12.832C42.51 12.7293 42.2167 12.5973 41.938 12.436V11.6H57.734V12.436C57.4554 12.612 57.162 12.7513 56.854 12.854C56.546 12.942 56.238 13.0153 55.93 13.074V25.526C56.4727 25.5847 57.074 25.7973 57.734 26.164V27H51.134V26.164C51.2807 26.0467 51.4714 25.9367 51.706 25.834C51.9407 25.7167 52.2487 25.614 52.63 25.526V13.03H47.042V25.526C47.3354 25.5993 47.5994 25.6873 47.834 25.79C48.0687 25.8927 48.3034 26.0173 48.538 26.164V27ZM65.2319 27H58.6099V26.164C58.8886 26.0173 59.1819 25.8853 59.4899 25.768C59.7979 25.6507 60.1059 25.57 60.4139 25.526V13.074C60.1206 13.0007 59.8126 12.92 59.4899 12.832C59.1673 12.7293 58.8739 12.5973 58.6099 12.436V11.6H65.2319V12.436C65.0119 12.568 64.7626 12.6927 64.4839 12.81C64.2053 12.9273 63.9046 13.0153 63.5819 13.074V21.434L63.3619 23.15L64.4399 21.346L69.9839 13.602V13.074C69.2946 12.9127 68.7153 12.7 68.2459 12.436V11.6H74.8679V12.436C74.6186 12.5973 74.3326 12.7293 74.0099 12.832C73.7019 12.92 73.3866 13.0007 73.0639 13.074V25.526C73.4013 25.5847 73.7166 25.6727 74.0099 25.79C74.3179 25.8927 74.6039 26.0173 74.8679 26.164V27H68.2459V26.164C68.4513 26.0613 68.6933 25.9513 68.9719 25.834C69.2653 25.702 69.5733 25.5993 69.8959 25.526V17.188L70.1159 15.45L69.1259 17.188L63.4939 25.042V25.526C63.8313 25.5993 64.1466 25.6947 64.4399 25.812C64.7333 25.9293 64.9973 26.0467 65.2319 26.164V27ZM87.1945 22.38H88.0965C88.1551 22.6147 88.2065 22.9007 88.2505 23.238C88.3091 23.5607 88.3531 23.9127 88.3825 24.294C88.4265 24.6607 88.4558 25.0273 88.4705 25.394C88.4851 25.7607 88.4925 26.0907 88.4925 26.384C87.9791 26.7067 87.3338 26.934 86.5565 27.066C85.7938 27.198 85.0091 27.264 84.2025 27.264C82.9851 27.264 81.8778 27.1173 80.8805 26.824C79.8978 26.516 79.0545 26.0393 78.3505 25.394C77.6611 24.734 77.1258 23.9053 76.7445 22.908C76.3631 21.896 76.1725 20.686 76.1725 19.278C76.1725 17.8847 76.3778 16.6893 76.7885 15.692C77.2138 14.68 77.7785 13.8513 78.4825 13.206C79.1865 12.5607 80.0005 12.0913 80.9245 11.798C81.8631 11.49 82.8458 11.336 83.8725 11.336C84.8405 11.336 85.7131 11.4093 86.4905 11.556C87.2825 11.688 87.9278 11.8713 88.4265 12.106C88.4265 12.3407 88.4118 12.6413 88.3825 13.008C88.3678 13.3747 88.3311 13.7633 88.2725 14.174C88.2285 14.57 88.1698 14.966 88.0965 15.362C88.0378 15.7433 87.9791 16.066 87.9205 16.33H86.9965L85.7865 13.008C85.6545 12.9347 85.4418 12.876 85.1485 12.832C84.8551 12.788 84.5545 12.766 84.2465 12.766C83.6451 12.766 83.0805 12.8907 82.5525 13.14C82.0245 13.3747 81.5551 13.756 81.1445 14.284C80.7338 14.812 80.4111 15.494 80.1765 16.33C79.9418 17.1513 79.8245 18.1413 79.8245 19.3C79.8245 21.3973 80.2425 23.0107 81.0785 24.14C81.9145 25.2693 83.0511 25.834 84.4885 25.834C84.8991 25.834 85.2438 25.8047 85.5225 25.746C85.8158 25.6727 86.0138 25.5773 86.1165 25.46L87.1945 22.38ZM90.106 27V26.164C90.37 26.0173 90.656 25.8853 90.964 25.768C91.2867 25.6507 91.602 25.57 91.91 25.526V13.074C91.6167 13.0153 91.3087 12.9347 90.986 12.832C90.6633 12.7293 90.37 12.5973 90.106 12.436V11.6H97.234V12.436C96.9847 12.5827 96.6767 12.7147 96.31 12.832C95.9433 12.9347 95.5767 13.0153 95.21 13.074V17.782C95.474 17.738 95.804 17.7013 96.2 17.672C96.6107 17.6427 96.9627 17.628 97.256 17.628C98.092 17.628 98.8693 17.7087 99.588 17.87C100.307 18.0313 100.93 18.2953 101.458 18.662C101.986 19.014 102.397 19.4833 102.69 20.07C102.998 20.642 103.152 21.3387 103.152 22.16C103.152 22.996 102.991 23.722 102.668 24.338C102.36 24.954 101.92 25.4673 101.348 25.878C100.776 26.274 100.087 26.5747 99.28 26.78C98.4733 26.9707 97.5787 27.066 96.596 27.066C96.5227 27.066 96.3613 27.0587 96.112 27.044C95.8627 27.044 95.584 27.0367 95.276 27.022C94.968 27.022 94.6453 27.0147 94.308 27C93.9853 27 93.714 27 93.494 27H90.106ZM96.442 19.058C95.9287 19.058 95.518 19.102 95.21 19.19V25.548C95.342 25.5773 95.5473 25.5993 95.826 25.614C96.1047 25.6287 96.3247 25.636 96.486 25.636C96.882 25.636 97.2633 25.5773 97.63 25.46C97.9967 25.328 98.3193 25.13 98.598 24.866C98.8767 24.5873 99.0967 24.228 99.258 23.788C99.434 23.348 99.522 22.8053 99.522 22.16C99.522 21.104 99.236 20.3267 98.664 19.828C98.1067 19.3147 97.366 19.058 96.442 19.058ZM123.736 27H117.158V26.164C117.452 26.0173 117.738 25.8927 118.016 25.79C118.295 25.6873 118.596 25.5993 118.918 25.526V16.33L119.028 13.756H118.852L118.126 16.11L113.88 27H112.868L108.644 16.198L107.852 13.624H107.654L107.676 16.418V25.438C107.955 25.4967 108.263 25.592 108.6 25.724C108.938 25.856 109.253 26.0027 109.546 26.164V27H104.178V26.164C104.413 26.0467 104.699 25.9073 105.036 25.746C105.388 25.5847 105.718 25.4747 106.026 25.416V13.074C105.733 13.0153 105.418 12.9347 105.08 12.832C104.758 12.7293 104.472 12.5973 104.222 12.436V11.6H110.184L113.55 20.554L114.188 22.666H114.21L114.87 20.51L118.302 11.6H123.758V12.436C123.509 12.5827 123.238 12.7147 122.944 12.832C122.666 12.9347 122.38 13.0153 122.086 13.074V25.548C122.394 25.6067 122.688 25.6947 122.966 25.812C123.26 25.9293 123.516 26.0467 123.736 26.164V27ZM136.203 11.6C136.174 12.26 136.123 12.942 136.049 13.646C135.976 14.35 135.881 15.01 135.763 15.626H134.861L133.849 13.03H129.735V18.42H132.419L133.387 16.726H134.091C134.165 17.4447 134.201 18.244 134.201 19.124C134.201 20.004 134.165 20.8253 134.091 21.588H133.387L132.419 19.85H129.735V25.57H134.025L135.191 22.776H136.093C136.152 23.0547 136.211 23.37 136.269 23.722C136.328 24.074 136.372 24.4407 136.401 24.822C136.445 25.1887 136.475 25.5627 136.489 25.944C136.519 26.3253 136.533 26.6773 136.533 27H124.631V26.164C124.881 26.032 125.159 25.9073 125.467 25.79C125.775 25.6727 126.098 25.5847 126.435 25.526V13.074C126.142 13.0153 125.827 12.9347 125.489 12.832C125.167 12.7147 124.881 12.5827 124.631 12.436V11.6H136.203ZM144.575 27H137.909V26.164C138.158 26.032 138.444 25.9073 138.767 25.79C139.104 25.6727 139.419 25.5847 139.713 25.526V13.074C139.361 13.0153 139.023 12.9273 138.701 12.81C138.378 12.6927 138.114 12.568 137.909 12.436V11.6H144.575V12.436C144.355 12.5827 144.105 12.7147 143.827 12.832C143.563 12.9493 143.291 13.03 143.013 13.074V18.398H148.843V13.074C148.52 13.0153 148.227 12.9273 147.963 12.81C147.713 12.6927 147.486 12.568 147.281 12.436V11.6H153.947V12.436C153.697 12.5973 153.411 12.7293 153.089 12.832C152.766 12.9347 152.451 13.0153 152.143 13.074V25.526C152.48 25.5847 152.803 25.6727 153.111 25.79C153.433 25.9073 153.712 26.032 153.947 26.164V27H147.281V26.164C147.501 26.032 147.743 25.9073 148.007 25.79C148.271 25.6727 148.549 25.5847 148.843 25.526V19.828H143.013V25.526C143.306 25.5847 143.577 25.6653 143.827 25.768C144.076 25.8707 144.325 26.0027 144.575 26.164V27ZM161.483 27H154.817V26.164C155.066 26.032 155.352 25.9073 155.675 25.79C156.012 25.6727 156.328 25.5847 156.621 25.526V13.074C156.269 13.0153 155.932 12.9273 155.609 12.81C155.286 12.6927 155.022 12.568 154.817 12.436V11.6H161.483V12.436C161.263 12.5827 161.014 12.7147 160.735 12.832C160.471 12.9493 160.2 13.03 159.921 13.074V18.398H165.751V13.074C165.428 13.0153 165.135 12.9273 164.871 12.81C164.622 12.6927 164.394 12.568 164.189 12.436V11.6H170.855V12.436C170.606 12.5973 170.32 12.7293 169.997 12.832C169.674 12.9347 169.359 13.0153 169.051 13.074V25.526C169.388 25.5847 169.711 25.6727 170.019 25.79C170.342 25.9073 170.62 26.032 170.855 26.164V27H164.189V26.164C164.409 26.032 164.651 25.9073 164.915 25.79C165.179 25.6727 165.458 25.5847 165.751 25.526V19.828H159.921V25.526C160.214 25.5847 160.486 25.6653 160.735 25.768C160.984 25.8707 161.234 26.0027 161.483 26.164V27ZM176.719 27H171.285V26.164C171.52 26.0173 171.769 25.8927 172.033 25.79C172.312 25.6727 172.583 25.5847 172.847 25.526L178.523 11.336H180.151L185.673 25.526C185.966 25.5847 186.26 25.6727 186.553 25.79C186.846 25.8927 187.103 26.0173 187.323 26.164V27H180.437V26.164C180.716 26.032 181.016 25.9073 181.339 25.79C181.662 25.6727 181.97 25.5847 182.263 25.526L180.987 22.028H176.103L174.805 25.526C175.48 25.614 176.118 25.8267 176.719 26.164V27ZM176.631 20.598H180.525L179.095 16.396L178.677 14.504H178.633L178.149 16.44L176.631 20.598ZM202.053 11.6V12.436C201.862 12.5533 201.605 12.6707 201.283 12.788C200.96 12.9053 200.615 13.0007 200.248 13.074V25.526C200.63 25.5993 200.967 25.6947 201.261 25.812C201.554 25.9293 201.818 26.0467 202.053 26.164V27H195.233V26.164C195.482 26.032 195.746 25.9147 196.025 25.812C196.318 25.6947 196.626 25.5993 196.949 25.526V20.686H195.101C194.661 21.698 194.213 22.6807 193.759 23.634C193.319 24.5873 192.776 25.4747 192.131 26.296L191.229 27H187.423V26.252L188.391 25.724C189.329 24.712 190.085 23.7807 190.657 22.93C191.243 22.0793 191.786 21.2873 192.285 20.554C191.903 20.422 191.522 20.246 191.141 20.026C190.759 19.7913 190.415 19.498 190.107 19.146C189.813 18.794 189.571 18.376 189.381 17.892C189.205 17.408 189.117 16.8433 189.117 16.198C189.117 15.3473 189.3 14.6287 189.667 14.042C190.033 13.4407 190.517 12.9567 191.119 12.59C191.72 12.2087 192.417 11.9373 193.209 11.776C194.001 11.6147 194.815 11.534 195.651 11.534C195.797 11.534 195.988 11.5413 196.223 11.556C196.472 11.556 196.729 11.5633 196.993 11.578C197.271 11.578 197.55 11.5853 197.829 11.6C198.107 11.6 198.357 11.6 198.577 11.6H202.053ZM195.607 19.388C195.812 19.388 196.054 19.3807 196.333 19.366C196.626 19.3367 196.831 19.3073 196.949 19.278V13.074C196.831 13.0447 196.648 13.0227 196.399 13.008C196.149 12.9787 195.937 12.964 195.761 12.964C195.335 12.964 194.932 13.0227 194.551 13.14C194.184 13.2427 193.854 13.4187 193.561 13.668C193.282 13.9173 193.055 14.24 192.879 14.636C192.717 15.032 192.637 15.516 192.637 16.088C192.637 17.188 192.901 18.0167 193.429 18.574C193.971 19.1167 194.697 19.388 195.607 19.388ZM83.9522 50.526C84.3482 50.5847 84.7369 50.6727 85.1182 50.79C85.5142 50.8927 85.8662 51.0173 86.1742 51.164V52H78.8482V51.164C79.1269 51.0027 79.4202 50.8707 79.7282 50.768C80.0509 50.6653 80.3589 50.5847 80.6522 50.526V38.074C80.3149 38.0153 79.9922 37.9347 79.6842 37.832C79.3762 37.7147 79.0975 37.5827 78.8482 37.436V36.6H81.6202C82.2069 36.6 82.8742 36.5707 83.6222 36.512C84.3849 36.4533 85.0815 36.424 85.7122 36.424C86.4895 36.424 87.2449 36.5047 87.9782 36.666C88.7262 36.8127 89.3862 37.0693 89.9582 37.436C90.5449 37.8027 91.0142 38.294 91.3662 38.91C91.7182 39.5113 91.8942 40.2667 91.8942 41.176C91.8942 42.0413 91.7182 42.7893 91.3662 43.42C91.0289 44.0507 90.5742 44.5713 90.0022 44.982C89.4302 45.3927 88.7702 45.7007 88.0222 45.906C87.2742 46.0967 86.5042 46.192 85.7122 46.192C85.6389 46.192 85.5215 46.192 85.3602 46.192C85.1989 46.192 85.0229 46.192 84.8322 46.192C84.6562 46.1773 84.4802 46.17 84.3042 46.17C84.1429 46.1553 84.0255 46.1407 83.9522 46.126V50.526ZM85.1402 37.854C84.8469 37.854 84.6122 37.8687 84.4362 37.898C84.2749 37.9127 84.1135 37.942 83.9522 37.986V44.674C84.0842 44.718 84.2822 44.7473 84.5462 44.762C84.8102 44.762 85.0229 44.762 85.1842 44.762C85.5802 44.762 85.9615 44.696 86.3282 44.564C86.6949 44.432 87.0175 44.2267 87.2962 43.948C87.5895 43.6693 87.8242 43.31 88.0002 42.87C88.1762 42.43 88.2642 41.902 88.2642 41.286C88.2642 40.1127 87.9782 39.2473 87.4062 38.69C86.8342 38.1327 86.0789 37.854 85.1402 37.854ZM96.0238 52H90.5898V51.164C90.8245 51.0173 91.0738 50.8927 91.3378 50.79C91.6165 50.6727 91.8878 50.5847 92.1518 50.526L97.8278 36.336H99.4558L104.978 50.526C105.271 50.5847 105.565 50.6727 105.858 50.79C106.151 50.8927 106.408 51.0173 106.628 51.164V52H99.7418V51.164C100.021 51.032 100.321 50.9073 100.644 50.79C100.967 50.6727 101.275 50.5847 101.568 50.526L100.292 47.028H95.4078L94.1098 50.526C94.7845 50.614 95.4225 50.8267 96.0238 51.164V52ZM95.9358 45.598H99.8298L98.3998 41.396L97.9818 39.504H97.9378L97.4538 41.44L95.9358 45.598ZM108.861 38.074C108.172 37.9567 107.571 37.744 107.057 37.436V36.6H118.871C118.871 36.9373 118.857 37.3113 118.827 37.722C118.798 38.1327 118.761 38.5433 118.717 38.954C118.673 39.3647 118.622 39.7607 118.563 40.142C118.505 40.5233 118.446 40.868 118.387 41.176H117.485L116.121 38.03H112.161V43.046C112.293 43.0313 112.455 43.0167 112.645 43.002C112.836 42.9727 113.027 42.9507 113.217 42.936C113.423 42.9213 113.621 42.914 113.811 42.914C114.017 42.8993 114.193 42.892 114.339 42.892C115.087 42.892 115.799 42.9727 116.473 43.134C117.148 43.2953 117.735 43.5593 118.233 43.926C118.747 44.278 119.15 44.74 119.443 45.312C119.751 45.884 119.905 46.5733 119.905 47.38C119.905 48.1573 119.744 48.8393 119.421 49.426C119.113 50.0127 118.681 50.504 118.123 50.9C117.581 51.2813 116.928 51.5747 116.165 51.78C115.417 51.9707 114.603 52.066 113.723 52.066C113.65 52.066 113.467 52.0587 113.173 52.044C112.88 52.044 112.55 52.0367 112.183 52.022C111.817 52.022 111.45 52.0147 111.083 52C110.717 52 110.423 52 110.203 52H107.057V51.164C107.336 51.0027 107.622 50.8707 107.915 50.768C108.223 50.6507 108.539 50.57 108.861 50.526V38.074ZM113.393 44.322C113.159 44.322 112.931 44.3367 112.711 44.366C112.491 44.3807 112.308 44.41 112.161 44.454V50.548C112.22 50.5627 112.308 50.5773 112.425 50.592C112.557 50.6067 112.689 50.6213 112.821 50.636C112.953 50.636 113.078 50.636 113.195 50.636C113.327 50.636 113.43 50.636 113.503 50.636C114.369 50.636 115.043 50.3573 115.527 49.8C116.026 49.2427 116.275 48.458 116.275 47.446C116.275 46.478 116.048 45.7153 115.593 45.158C115.139 44.6007 114.405 44.322 113.393 44.322ZM121.569 44.3C121.569 43.156 121.73 42.1 122.053 41.132C122.376 40.1493 122.852 39.306 123.483 38.602C124.114 37.8833 124.891 37.326 125.815 36.93C126.739 36.534 127.802 36.336 129.005 36.336C130.208 36.336 131.271 36.534 132.195 36.93C133.119 37.326 133.889 37.8833 134.505 38.602C135.136 39.306 135.612 40.1493 135.935 41.132C136.258 42.1 136.419 43.156 136.419 44.3C136.419 45.444 136.258 46.5073 135.935 47.49C135.612 48.458 135.136 49.3013 134.505 50.02C133.889 50.724 133.119 51.274 132.195 51.67C131.271 52.066 130.208 52.264 129.005 52.264C127.802 52.264 126.739 52.066 125.815 51.67C124.891 51.274 124.114 50.724 123.483 50.02C122.852 49.3013 122.376 48.458 122.053 47.49C121.73 46.5073 121.569 45.444 121.569 44.3ZM125.309 44.3C125.309 45.2387 125.382 46.1113 125.529 46.918C125.676 47.71 125.903 48.3993 126.211 48.986C126.534 49.558 126.937 50.0127 127.421 50.35C127.92 50.6727 128.514 50.834 129.203 50.834C129.834 50.834 130.369 50.6727 130.809 50.35C131.249 50.0127 131.608 49.558 131.887 48.986C132.166 48.3993 132.364 47.71 132.481 46.918C132.613 46.1113 132.679 45.2387 132.679 44.3C132.679 43.3613 132.606 42.496 132.459 41.704C132.327 40.8973 132.107 40.208 131.799 39.636C131.506 39.0493 131.11 38.5947 130.611 38.272C130.127 37.9347 129.533 37.766 128.829 37.766C128.154 37.766 127.59 37.9347 127.135 38.272C126.68 38.5947 126.314 39.0493 126.035 39.636C125.771 40.208 125.58 40.8973 125.463 41.704C125.36 42.496 125.309 43.3613 125.309 44.3ZM147.977 52H140.409V51.164C140.703 51.0467 141.033 50.9293 141.399 50.812C141.781 50.68 142.162 50.5847 142.543 50.526V38.03H139.991L138.583 41.792H137.681C137.623 41.4987 137.564 41.1247 137.505 40.67C137.447 40.2153 137.395 39.746 137.351 39.262C137.307 38.778 137.271 38.3013 137.241 37.832C137.212 37.348 137.197 36.9373 137.197 36.6H151.211C151.211 36.952 151.197 37.3627 151.167 37.832C151.138 38.3013 151.101 38.778 151.057 39.262C151.013 39.746 150.962 40.2153 150.903 40.67C150.845 41.11 150.786 41.484 150.727 41.792H149.803L148.395 38.03H145.843V50.526C146.225 50.5993 146.599 50.6873 146.965 50.79C147.347 50.8927 147.684 51.0173 147.977 51.164V52ZM154.998 52H149.564V51.164C149.799 51.0173 150.048 50.8927 150.312 50.79C150.591 50.6727 150.862 50.5847 151.126 50.526L156.802 36.336H158.43L163.952 50.526C164.246 50.5847 164.539 50.6727 164.832 50.79C165.126 50.8927 165.382 51.0173 165.602 51.164V52H158.716V51.164C158.995 51.032 159.296 50.9073 159.618 50.79C159.941 50.6727 160.249 50.5847 160.542 50.526L159.266 47.028H154.382L153.084 50.526C153.759 50.614 154.397 50.8267 154.998 51.164V52ZM154.91 45.598H158.804L157.374 41.396L156.956 39.504H156.912L156.428 41.44L154.91 45.598Z" fill="white"/>
</svg>
