<svg width="204" height="59" viewBox="0 0 204 59" fill="none" xmlns="http://www.w3.org/2000/svg">
<path d="M0.53782 11.3501L2.15128 5.94903C2.25293 5.5407 2.8085 4.89365 3.22692 4.86881H10.2186C10.5766 4.84007 10.9362 4.84007 11.2942 4.86881H15.5968C15.9119 4.90067 15.9932 5.12428 16.1346 5.40892L16.6724 6.48914C16.8959 6.82524 17.0766 7.18814 17.2102 7.56936L17.7481 9.72979C17.8083 10.0895 17.9229 10.2699 18.2859 10.2699C18.4188 10.2436 18.5409 10.1782 18.6367 10.0821C18.7324 9.98588 18.7975 9.86325 18.8237 9.72979V7.02925C18.8237 6.03112 18.274 5.17559 17.7481 4.3287C17.251 3.48904 16.5411 2.79674 15.6908 2.32234C14.8405 1.84795 13.8802 1.60841 12.9077 1.62815H11.832C11.5798 1.62815 11.4722 1.26736 11.2942 1.08804C10.3963 0.325766 9.24107 -0.0609458 8.0673 0.00782147H7.52948C5.78555 0.0176086 4.09009 0.585169 2.6891 1.62815C2.29236 1.94771 1.93166 2.30994 1.61346 2.70837V3.24848C0.785755 4.29197 0 5.15507 0 6.48914V11.3501C0 11.4679 0.420575 11.3501 0.53782 11.3501C0.665821 11.3501 0.504475 11.4743 0.53782 11.3501Z" fill="#313131"/>
<path d="M9.68144 50.2377V38.8954C9.65856 38.6825 9.69709 38.4675 9.79244 38.276C9.88779 38.0845 10.0359 37.9245 10.2193 37.8152C10.7192 37.4608 11.0932 36.9552 11.2867 36.3722C11.4802 35.7892 11.4831 35.1593 11.2949 34.5745C11.1996 34.085 10.9269 33.6483 10.5295 33.349C10.1321 33.0496 9.63831 32.909 9.14362 32.9542C7.98408 32.9445 6.80357 33.4641 6.45452 34.5745C6.26722 35.1594 6.27052 35.7889 6.46397 36.3718C6.65741 36.9546 7.03091 37.4602 7.53016 37.8152C7.71605 37.9218 7.86634 38.0812 7.96206 38.2735C8.05778 38.4657 8.09464 38.6822 8.06798 38.8954C8.04862 42.5444 8.06798 46.0486 8.06798 49.6976V50.2377L2.68978 39.9756C2.08151 38.6945 1.65233 37.4868 1.07632 36.1949C0.951121 35.8458 0.951121 35.4638 1.07632 35.1147C2.98741 32.4181 4.10554 29.2366 4.30324 25.9328C4.26237 26.0144 4.32314 25.8437 4.30324 25.9328H13.4462C13.7436 27.3371 13.6419 28.3703 13.984 29.7136C14.5584 31.6582 15.4686 33.4864 16.6731 35.1147C16.7691 35.2783 16.8198 35.4648 16.8198 35.6548C16.8198 35.8447 16.7691 36.0312 16.6731 36.1949" fill="#313131"/>
<path d="M14.522 24.3125V25.3927C14.3558 25.8 13.8826 26.5134 13.4464 26.4729H4.84126C4.57312 26.4258 4.32597 26.2968 4.13348 26.1035C3.941 25.9102 3.81254 25.662 3.76562 25.3927V24.3125H14.522Z" fill="#313131"/>
<path d="M9.14258 26.4747L11.2939 25.3945V27.555L9.14258 26.4747Z" fill="#FFFCF8"/>
<path d="M8.60636 26.4747L6.45508 27.555V25.3945L8.60636 26.4747Z" fill="#FFFCF8"/>
<path d="M8.60563 51.3163C8.23345 51.2374 7.19008 52.4089 7.52999 53.4767C8.02317 55.0695 11.4071 55.5729 12.3704 55.6372C15.7167 55.8635 16.8235 54.4203 19.8998 55.097C21.8812 55.5243 22.4061 56.2351 22.5889 56.7174C22.8041 57.3002 22.3614 58.1924 22.5889 58.3377C22.8164 58.483 23.4946 57.8192 23.6646 57.2575C23.7369 56.964 23.7248 56.6559 23.6296 56.369C23.5344 56.0822 23.36 55.8284 23.1268 55.6372C22.5352 55.0565 21.7688 54.7427 20.4377 54.5569C18.4219 54.262 17.1855 54.5569 15.0595 54.5569C13.9608 54.5662 12.8689 54.3835 11.8325 54.0168C10.0233 53.5534 9.27091 53.1375 9.14345 52.9366C8.65242 52.1378 8.86539 51.3714 8.60563 51.3163Z" fill="#313131"/>
<path d="M47.038 27H40.438V26.164C40.658 26.0467 40.9147 25.9293 41.208 25.812C41.5014 25.68 41.846 25.5847 42.242 25.526V13.074C41.9487 13.0153 41.6407 12.9347 41.318 12.832C41.01 12.7293 40.7167 12.5973 40.438 12.436V11.6H56.234V12.436C55.9554 12.612 55.662 12.7513 55.354 12.854C55.046 12.942 54.738 13.0153 54.43 13.074V25.526C54.9727 25.5847 55.574 25.7973 56.234 26.164V27H49.634V26.164C49.7807 26.0467 49.9714 25.9367 50.206 25.834C50.4407 25.7167 50.7487 25.614 51.13 25.526V13.03H45.542V25.526C45.8354 25.5993 46.0994 25.6873 46.334 25.79C46.5687 25.8927 46.8034 26.0173 47.038 26.164V27ZM63.7319 27H57.1099V26.164C57.3886 26.0173 57.6819 25.8853 57.9899 25.768C58.2979 25.6507 58.6059 25.57 58.9139 25.526V13.074C58.6206 13.0007 58.3126 12.92 57.9899 12.832C57.6673 12.7293 57.3739 12.5973 57.1099 12.436V11.6H63.7319V12.436C63.5119 12.568 63.2626 12.6927 62.9839 12.81C62.7053 12.9273 62.4046 13.0153 62.0819 13.074V21.434L61.8619 23.15L62.9399 21.346L68.4839 13.602V13.074C67.7946 12.9127 67.2153 12.7 66.7459 12.436V11.6H73.3679V12.436C73.1186 12.5973 72.8326 12.7293 72.5099 12.832C72.2019 12.92 71.8866 13.0007 71.5639 13.074V25.526C71.9013 25.5847 72.2166 25.6727 72.5099 25.79C72.8179 25.8927 73.1039 26.0173 73.3679 26.164V27H66.7459V26.164C66.9513 26.0613 67.1933 25.9513 67.4719 25.834C67.7653 25.702 68.0733 25.5993 68.3959 25.526V17.188L68.6159 15.45L67.6259 17.188L61.9939 25.042V25.526C62.3313 25.5993 62.6466 25.6947 62.9399 25.812C63.2333 25.9293 63.4973 26.0467 63.7319 26.164V27ZM85.6945 22.38H86.5965C86.6551 22.6147 86.7065 22.9007 86.7505 23.238C86.8091 23.5607 86.8531 23.9127 86.8825 24.294C86.9265 24.6607 86.9558 25.0273 86.9705 25.394C86.9851 25.7607 86.9925 26.0907 86.9925 26.384C86.4791 26.7067 85.8338 26.934 85.0565 27.066C84.2938 27.198 83.5091 27.264 82.7025 27.264C81.4851 27.264 80.3778 27.1173 79.3805 26.824C78.3978 26.516 77.5545 26.0393 76.8505 25.394C76.1611 24.734 75.6258 23.9053 75.2445 22.908C74.8631 21.896 74.6725 20.686 74.6725 19.278C74.6725 17.8847 74.8778 16.6893 75.2885 15.692C75.7138 14.68 76.2785 13.8513 76.9825 13.206C77.6865 12.5607 78.5005 12.0913 79.4245 11.798C80.3631 11.49 81.3458 11.336 82.3725 11.336C83.3405 11.336 84.2131 11.4093 84.9905 11.556C85.7825 11.688 86.4278 11.8713 86.9265 12.106C86.9265 12.3407 86.9118 12.6413 86.8825 13.008C86.8678 13.3747 86.8311 13.7633 86.7725 14.174C86.7285 14.57 86.6698 14.966 86.5965 15.362C86.5378 15.7433 86.4791 16.066 86.4205 16.33H85.4965L84.2865 13.008C84.1545 12.9347 83.9418 12.876 83.6485 12.832C83.3551 12.788 83.0545 12.766 82.7465 12.766C82.1451 12.766 81.5805 12.8907 81.0525 13.14C80.5245 13.3747 80.0551 13.756 79.6445 14.284C79.2338 14.812 78.9111 15.494 78.6765 16.33C78.4418 17.1513 78.3245 18.1413 78.3245 19.3C78.3245 21.3973 78.7425 23.0107 79.5785 24.14C80.4145 25.2693 81.5511 25.834 82.9885 25.834C83.3991 25.834 83.7438 25.8047 84.0225 25.746C84.3158 25.6727 84.5138 25.5773 84.6165 25.46L85.6945 22.38ZM88.606 27V26.164C88.87 26.0173 89.156 25.8853 89.464 25.768C89.7867 25.6507 90.102 25.57 90.41 25.526V13.074C90.1167 13.0153 89.8087 12.9347 89.486 12.832C89.1633 12.7293 88.87 12.5973 88.606 12.436V11.6H95.734V12.436C95.4847 12.5827 95.1767 12.7147 94.81 12.832C94.4433 12.9347 94.0767 13.0153 93.71 13.074V17.782C93.974 17.738 94.304 17.7013 94.7 17.672C95.1107 17.6427 95.4627 17.628 95.756 17.628C96.592 17.628 97.3693 17.7087 98.088 17.87C98.8067 18.0313 99.43 18.2953 99.958 18.662C100.486 19.014 100.897 19.4833 101.19 20.07C101.498 20.642 101.652 21.3387 101.652 22.16C101.652 22.996 101.491 23.722 101.168 24.338C100.86 24.954 100.42 25.4673 99.848 25.878C99.276 26.274 98.5867 26.5747 97.78 26.78C96.9733 26.9707 96.0787 27.066 95.096 27.066C95.0227 27.066 94.8613 27.0587 94.612 27.044C94.3627 27.044 94.084 27.0367 93.776 27.022C93.468 27.022 93.1453 27.0147 92.808 27C92.4853 27 92.214 27 91.994 27H88.606ZM94.942 19.058C94.4287 19.058 94.018 19.102 93.71 19.19V25.548C93.842 25.5773 94.0473 25.5993 94.326 25.614C94.6047 25.6287 94.8247 25.636 94.986 25.636C95.382 25.636 95.7633 25.5773 96.13 25.46C96.4967 25.328 96.8193 25.13 97.098 24.866C97.3767 24.5873 97.5967 24.228 97.758 23.788C97.934 23.348 98.022 22.8053 98.022 22.16C98.022 21.104 97.736 20.3267 97.164 19.828C96.6067 19.3147 95.866 19.058 94.942 19.058ZM122.236 27H115.658V26.164C115.952 26.0173 116.238 25.8927 116.516 25.79C116.795 25.6873 117.096 25.5993 117.418 25.526V16.33L117.528 13.756H117.352L116.626 16.11L112.38 27H111.368L107.144 16.198L106.352 13.624H106.154L106.176 16.418V25.438C106.455 25.4967 106.763 25.592 107.1 25.724C107.438 25.856 107.753 26.0027 108.046 26.164V27H102.678V26.164C102.913 26.0467 103.199 25.9073 103.536 25.746C103.888 25.5847 104.218 25.4747 104.526 25.416V13.074C104.233 13.0153 103.918 12.9347 103.58 12.832C103.258 12.7293 102.972 12.5973 102.722 12.436V11.6H108.684L112.05 20.554L112.688 22.666H112.71L113.37 20.51L116.802 11.6H122.258V12.436C122.009 12.5827 121.738 12.7147 121.444 12.832C121.166 12.9347 120.88 13.0153 120.586 13.074V25.548C120.894 25.6067 121.188 25.6947 121.466 25.812C121.76 25.9293 122.016 26.0467 122.236 26.164V27ZM134.703 11.6C134.674 12.26 134.623 12.942 134.549 13.646C134.476 14.35 134.381 15.01 134.263 15.626H133.361L132.349 13.03H128.235V18.42H130.919L131.887 16.726H132.591C132.665 17.4447 132.701 18.244 132.701 19.124C132.701 20.004 132.665 20.8253 132.591 21.588H131.887L130.919 19.85H128.235V25.57H132.525L133.691 22.776H134.593C134.652 23.0547 134.711 23.37 134.769 23.722C134.828 24.074 134.872 24.4407 134.901 24.822C134.945 25.1887 134.975 25.5627 134.989 25.944C135.019 26.3253 135.033 26.6773 135.033 27H123.131V26.164C123.381 26.032 123.659 25.9073 123.967 25.79C124.275 25.6727 124.598 25.5847 124.935 25.526V13.074C124.642 13.0153 124.327 12.9347 123.989 12.832C123.667 12.7147 123.381 12.5827 123.131 12.436V11.6H134.703ZM143.075 27H136.409V26.164C136.658 26.032 136.944 25.9073 137.267 25.79C137.604 25.6727 137.919 25.5847 138.213 25.526V13.074C137.861 13.0153 137.523 12.9273 137.201 12.81C136.878 12.6927 136.614 12.568 136.409 12.436V11.6H143.075V12.436C142.855 12.5827 142.605 12.7147 142.327 12.832C142.063 12.9493 141.791 13.03 141.513 13.074V18.398H147.343V13.074C147.02 13.0153 146.727 12.9273 146.463 12.81C146.213 12.6927 145.986 12.568 145.781 12.436V11.6H152.447V12.436C152.197 12.5973 151.911 12.7293 151.589 12.832C151.266 12.9347 150.951 13.0153 150.643 13.074V25.526C150.98 25.5847 151.303 25.6727 151.611 25.79C151.933 25.9073 152.212 26.032 152.447 26.164V27H145.781V26.164C146.001 26.032 146.243 25.9073 146.507 25.79C146.771 25.6727 147.049 25.5847 147.343 25.526V19.828H141.513V25.526C141.806 25.5847 142.077 25.6653 142.327 25.768C142.576 25.8707 142.825 26.0027 143.075 26.164V27ZM159.983 27H153.317V26.164C153.566 26.032 153.852 25.9073 154.175 25.79C154.512 25.6727 154.828 25.5847 155.121 25.526V13.074C154.769 13.0153 154.432 12.9273 154.109 12.81C153.786 12.6927 153.522 12.568 153.317 12.436V11.6H159.983V12.436C159.763 12.5827 159.514 12.7147 159.235 12.832C158.971 12.9493 158.7 13.03 158.421 13.074V18.398H164.251V13.074C163.928 13.0153 163.635 12.9273 163.371 12.81C163.122 12.6927 162.894 12.568 162.689 12.436V11.6H169.355V12.436C169.106 12.5973 168.82 12.7293 168.497 12.832C168.174 12.9347 167.859 13.0153 167.551 13.074V25.526C167.888 25.5847 168.211 25.6727 168.519 25.79C168.842 25.9073 169.12 26.032 169.355 26.164V27H162.689V26.164C162.909 26.032 163.151 25.9073 163.415 25.79C163.679 25.6727 163.958 25.5847 164.251 25.526V19.828H158.421V25.526C158.714 25.5847 158.986 25.6653 159.235 25.768C159.484 25.8707 159.734 26.0027 159.983 26.164V27ZM175.219 27H169.785V26.164C170.02 26.0173 170.269 25.8927 170.533 25.79C170.812 25.6727 171.083 25.5847 171.347 25.526L177.023 11.336H178.651L184.173 25.526C184.466 25.5847 184.76 25.6727 185.053 25.79C185.346 25.8927 185.603 26.0173 185.823 26.164V27H178.937V26.164C179.216 26.032 179.516 25.9073 179.839 25.79C180.162 25.6727 180.47 25.5847 180.763 25.526L179.487 22.028H174.603L173.305 25.526C173.98 25.614 174.618 25.8267 175.219 26.164V27ZM175.131 20.598H179.025L177.595 16.396L177.177 14.504H177.133L176.649 16.44L175.131 20.598ZM200.553 11.6V12.436C200.362 12.5533 200.105 12.6707 199.783 12.788C199.46 12.9053 199.115 13.0007 198.748 13.074V25.526C199.13 25.5993 199.467 25.6947 199.761 25.812C200.054 25.9293 200.318 26.0467 200.553 26.164V27H193.733V26.164C193.982 26.032 194.246 25.9147 194.525 25.812C194.818 25.6947 195.126 25.5993 195.449 25.526V20.686H193.601C193.161 21.698 192.713 22.6807 192.259 23.634C191.819 24.5873 191.276 25.4747 190.631 26.296L189.729 27H185.923V26.252L186.891 25.724C187.829 24.712 188.585 23.7807 189.157 22.93C189.743 22.0793 190.286 21.2873 190.785 20.554C190.403 20.422 190.022 20.246 189.641 20.026C189.259 19.7913 188.915 19.498 188.607 19.146C188.313 18.794 188.071 18.376 187.881 17.892C187.705 17.408 187.617 16.8433 187.617 16.198C187.617 15.3473 187.8 14.6287 188.167 14.042C188.533 13.4407 189.017 12.9567 189.619 12.59C190.22 12.2087 190.917 11.9373 191.709 11.776C192.501 11.6147 193.315 11.534 194.151 11.534C194.297 11.534 194.488 11.5413 194.723 11.556C194.972 11.556 195.229 11.5633 195.493 11.578C195.771 11.578 196.05 11.5853 196.329 11.6C196.607 11.6 196.857 11.6 197.077 11.6H200.553ZM194.107 19.388C194.312 19.388 194.554 19.3807 194.833 19.366C195.126 19.3367 195.331 19.3073 195.449 19.278V13.074C195.331 13.0447 195.148 13.0227 194.899 13.008C194.649 12.9787 194.437 12.964 194.261 12.964C193.835 12.964 193.432 13.0227 193.051 13.14C192.684 13.2427 192.354 13.4187 192.061 13.668C191.782 13.9173 191.555 14.24 191.379 14.636C191.217 15.032 191.137 15.516 191.137 16.088C191.137 17.188 191.401 18.0167 191.929 18.574C192.471 19.1167 193.197 19.388 194.107 19.388ZM82.4522 50.526C82.8482 50.5847 83.2369 50.6727 83.6182 50.79C84.0142 50.8927 84.3662 51.0173 84.6742 51.164V52H77.3482V51.164C77.6269 51.0027 77.9202 50.8707 78.2282 50.768C78.5509 50.6653 78.8589 50.5847 79.1522 50.526V38.074C78.8149 38.0153 78.4922 37.9347 78.1842 37.832C77.8762 37.7147 77.5975 37.5827 77.3482 37.436V36.6H80.1202C80.7069 36.6 81.3742 36.5707 82.1222 36.512C82.8849 36.4533 83.5815 36.424 84.2122 36.424C84.9895 36.424 85.7449 36.5047 86.4782 36.666C87.2262 36.8127 87.8862 37.0693 88.4582 37.436C89.0449 37.8027 89.5142 38.294 89.8662 38.91C90.2182 39.5113 90.3942 40.2667 90.3942 41.176C90.3942 42.0413 90.2182 42.7893 89.8662 43.42C89.5289 44.0507 89.0742 44.5713 88.5022 44.982C87.9302 45.3927 87.2702 45.7007 86.5222 45.906C85.7742 46.0967 85.0042 46.192 84.2122 46.192C84.1389 46.192 84.0215 46.192 83.8602 46.192C83.6989 46.192 83.5229 46.192 83.3322 46.192C83.1562 46.1773 82.9802 46.17 82.8042 46.17C82.6429 46.1553 82.5255 46.1407 82.4522 46.126V50.526ZM83.6402 37.854C83.3469 37.854 83.1122 37.8687 82.9362 37.898C82.7749 37.9127 82.6135 37.942 82.4522 37.986V44.674C82.5842 44.718 82.7822 44.7473 83.0462 44.762C83.3102 44.762 83.5229 44.762 83.6842 44.762C84.0802 44.762 84.4615 44.696 84.8282 44.564C85.1949 44.432 85.5175 44.2267 85.7962 43.948C86.0895 43.6693 86.3242 43.31 86.5002 42.87C86.6762 42.43 86.7642 41.902 86.7642 41.286C86.7642 40.1127 86.4782 39.2473 85.9062 38.69C85.3342 38.1327 84.5789 37.854 83.6402 37.854ZM94.5238 52H89.0898V51.164C89.3245 51.0173 89.5738 50.8927 89.8378 50.79C90.1165 50.6727 90.3878 50.5847 90.6518 50.526L96.3278 36.336H97.9558L103.478 50.526C103.771 50.5847 104.065 50.6727 104.358 50.79C104.651 50.8927 104.908 51.0173 105.128 51.164V52H98.2418V51.164C98.5205 51.032 98.8212 50.9073 99.1438 50.79C99.4665 50.6727 99.7745 50.5847 100.068 50.526L98.7918 47.028H93.9078L92.6098 50.526C93.2845 50.614 93.9225 50.8267 94.5238 51.164V52ZM94.4358 45.598H98.3298L96.8998 41.396L96.4818 39.504H96.4378L95.9538 41.44L94.4358 45.598ZM107.361 38.074C106.672 37.9567 106.071 37.744 105.557 37.436V36.6H117.371C117.371 36.9373 117.357 37.3113 117.327 37.722C117.298 38.1327 117.261 38.5433 117.217 38.954C117.173 39.3647 117.122 39.7607 117.063 40.142C117.005 40.5233 116.946 40.868 116.887 41.176H115.985L114.621 38.03H110.661V43.046C110.793 43.0313 110.955 43.0167 111.145 43.002C111.336 42.9727 111.527 42.9507 111.717 42.936C111.923 42.9213 112.121 42.914 112.311 42.914C112.517 42.8993 112.693 42.892 112.839 42.892C113.587 42.892 114.299 42.9727 114.973 43.134C115.648 43.2953 116.235 43.5593 116.733 43.926C117.247 44.278 117.65 44.74 117.943 45.312C118.251 45.884 118.405 46.5733 118.405 47.38C118.405 48.1573 118.244 48.8393 117.921 49.426C117.613 50.0127 117.181 50.504 116.623 50.9C116.081 51.2813 115.428 51.5747 114.665 51.78C113.917 51.9707 113.103 52.066 112.223 52.066C112.15 52.066 111.967 52.0587 111.673 52.044C111.38 52.044 111.05 52.0367 110.683 52.022C110.317 52.022 109.95 52.0147 109.583 52C109.217 52 108.923 52 108.703 52H105.557V51.164C105.836 51.0027 106.122 50.8707 106.415 50.768C106.723 50.6507 107.039 50.57 107.361 50.526V38.074ZM111.893 44.322C111.659 44.322 111.431 44.3367 111.211 44.366C110.991 44.3807 110.808 44.41 110.661 44.454V50.548C110.72 50.5627 110.808 50.5773 110.925 50.592C111.057 50.6067 111.189 50.6213 111.321 50.636C111.453 50.636 111.578 50.636 111.695 50.636C111.827 50.636 111.93 50.636 112.003 50.636C112.869 50.636 113.543 50.3573 114.027 49.8C114.526 49.2427 114.775 48.458 114.775 47.446C114.775 46.478 114.548 45.7153 114.093 45.158C113.639 44.6007 112.905 44.322 111.893 44.322ZM120.069 44.3C120.069 43.156 120.23 42.1 120.553 41.132C120.876 40.1493 121.352 39.306 121.983 38.602C122.614 37.8833 123.391 37.326 124.315 36.93C125.239 36.534 126.302 36.336 127.505 36.336C128.708 36.336 129.771 36.534 130.695 36.93C131.619 37.326 132.389 37.8833 133.005 38.602C133.636 39.306 134.112 40.1493 134.435 41.132C134.758 42.1 134.919 43.156 134.919 44.3C134.919 45.444 134.758 46.5073 134.435 47.49C134.112 48.458 133.636 49.3013 133.005 50.02C132.389 50.724 131.619 51.274 130.695 51.67C129.771 52.066 128.708 52.264 127.505 52.264C126.302 52.264 125.239 52.066 124.315 51.67C123.391 51.274 122.614 50.724 121.983 50.02C121.352 49.3013 120.876 48.458 120.553 47.49C120.23 46.5073 120.069 45.444 120.069 44.3ZM123.809 44.3C123.809 45.2387 123.882 46.1113 124.029 46.918C124.176 47.71 124.403 48.3993 124.711 48.986C125.034 49.558 125.437 50.0127 125.921 50.35C126.42 50.6727 127.014 50.834 127.703 50.834C128.334 50.834 128.869 50.6727 129.309 50.35C129.749 50.0127 130.108 49.558 130.387 48.986C130.666 48.3993 130.864 47.71 130.981 46.918C131.113 46.1113 131.179 45.2387 131.179 44.3C131.179 43.3613 131.106 42.496 130.959 41.704C130.827 40.8973 130.607 40.208 130.299 39.636C130.006 39.0493 129.61 38.5947 129.111 38.272C128.627 37.9347 128.033 37.766 127.329 37.766C126.654 37.766 126.09 37.9347 125.635 38.272C125.18 38.5947 124.814 39.0493 124.535 39.636C124.271 40.208 124.08 40.8973 123.963 41.704C123.86 42.496 123.809 43.3613 123.809 44.3ZM146.477 52H138.909V51.164C139.203 51.0467 139.533 50.9293 139.899 50.812C140.281 50.68 140.662 50.5847 141.043 50.526V38.03H138.491L137.083 41.792H136.181C136.123 41.4987 136.064 41.1247 136.005 40.67C135.947 40.2153 135.895 39.746 135.851 39.262C135.807 38.778 135.771 38.3013 135.741 37.832C135.712 37.348 135.697 36.9373 135.697 36.6H149.711C149.711 36.952 149.697 37.3627 149.667 37.832C149.638 38.3013 149.601 38.778 149.557 39.262C149.513 39.746 149.462 40.2153 149.403 40.67C149.345 41.11 149.286 41.484 149.227 41.792H148.303L146.895 38.03H144.343V50.526C144.725 50.5993 145.099 50.6873 145.465 50.79C145.847 50.8927 146.184 51.0173 146.477 51.164V52ZM153.498 52H148.064V51.164C148.299 51.0173 148.548 50.8927 148.812 50.79C149.091 50.6727 149.362 50.5847 149.626 50.526L155.302 36.336H156.93L162.452 50.526C162.746 50.5847 163.039 50.6727 163.332 50.79C163.626 50.8927 163.882 51.0173 164.102 51.164V52H157.216V51.164C157.495 51.032 157.796 50.9073 158.118 50.79C158.441 50.6727 158.749 50.5847 159.042 50.526L157.766 47.028H152.882L151.584 50.526C152.259 50.614 152.897 50.8267 153.498 51.164V52ZM153.41 45.598H157.304L155.874 41.396L155.456 39.504H155.412L154.928 41.44L153.41 45.598Z" fill="#313131"/>
</svg>
